<svg xmlns="http://www.w3.org/2000/svg" width="256" height="256"><path fill-opacity=".231" d="M0 128.004v128.004l128.25-.254 128.25-.254.254-127.75L257.008 0H0v128.004m.485.496c0 70.4.119 99.053.265 63.672.146-35.38.146-92.98 0-128C.604 29.153.485 58.1.485 128.5" fill="#1976D2" fill-rule="evenodd"/><path fill-opacity=".582" d="M0 127.504v127.504l128.25-.254 128.25-.254.254-127.25L257.008 0H0v127.504m.485.496c0 70.125.119 98.813.265 63.75.146-35.062.146-92.437 0-127.5C.604 29.188.485 57.875.485 128M114.5 30.996C94.486 33.01 74.814 42.294 59.657 56.88 22.575 92.562 21.604 151.845 57.5 188.52c12.25 12.516 24.664 20.094 41.203 25.152 7.997 2.445 10.297 2.693 25.297 2.729 14.269.034 17.582-.27 24.5-2.248 18.617-5.324 37.151-17.473 48.639-31.884 7.55-9.471 14.997-24.653 18.04-36.776 4.197-16.719 2.784-37.76-3.686-54.895-14.737-39.029-55.08-63.82-96.993-59.602m22.945 59.908c-1.13.488-3.492 2.525-5.25 4.526-2.685 3.059-3.195 4.44-3.195 8.654 0 8.482 4.401 14.132 12.009 15.417 11.525 1.948 20.813-9.409 16.503-20.179-2.203-5.507-6.687-8.617-12.972-8.998-2.772-.168-5.965.093-7.095.58m1.87 6.103c-3.989 1.607-5.602 7.719-3.215 12.179 1.039 1.943 1.42 1.737 7-3.784 3.245-3.212 5.9-6.363 5.9-7.004 0-2.131-5.785-2.962-9.685-1.391M94 100.68c-7.321.753-7.873 1.175-14.497 11.081C75.926 117.109 73 122.19 73 123.051c0 3.367 2.536 4.868 10.406 6.155 7.243 1.185 7.937 1.504 8.277 3.794.498 3.366 21.022 24 23.871 24 1.831 0 2.234.94 3.279 7.662.655 4.214 1.691 8.264 2.301 9 2.157 2.599 6.268 1.337 15.523-4.766 7.177-4.732 9.472-6.81 10.217-9.25.904-2.957 2.205-17.646 1.563-17.646-.163 0-3.958 2.331-8.433 5.18l-8.138 5.179-18.071-18.071-18.071-18.071 3.659-5.859c2.013-3.222 4.38-6.871 5.261-8.108 1.592-2.239 1.578-2.249-2.772-2.09-2.405.088-5.947.322-7.872.52m-8.984 62.793C77.136 171.383 74.125 175 75.421 175c2.651 0 21.895-19.165 21.437-21.349-.259-1.235-3.527 1.476-11.842 9.822m11.536 2.474c-5.022 5.075-5.696 6.175-4.596 7.5 1.928 2.324 2.682 2.009 8.604-3.592 3.59-3.396 5.44-5.946 5.44-7.5 0-3.97-3.15-2.772-9.448 3.592" fill="#1976D2" fill-rule="evenodd"/><path fill-opacity=".475" d="M0 127.504v127.504l128.25-.254 128.25-.254.254-127.25L257.008 0H0v127.504m.485.496c0 70.125.119 98.813.265 63.75.146-35.062.146-92.437 0-127.5C.604 29.188.485 57.875.485 128m102.632-99.551c-1.132 3.815-1.564 4.164-7.409 5.991-18.471 5.775-37.673 19.948-48.584 35.863-5.7 8.314-11.137 20.308-13.795 30.429-3.612 13.758-3.605 31.493.018 45.474 8.91 34.382 34.627 60.149 68.84 68.976 11.92 3.075 31.803 3.067 44.313-.017 47.585-11.732 78.421-58.332 70.536-106.595-1.127-6.901-5.399-21.715-7.084-24.57l-4.047-6.846c-5.228-8.84-14.439-19.722-21.452-25.342-6.807-5.455-7.312-6.653-5.032-11.945.553-1.285-.004-1.733-2.609-2.098-1.822-.255-4.099-.806-5.062-1.224-1.413-.613-1.75-.257-1.75 1.848 0 1.434-.126 2.607-.28 2.607-.155 0-3.867-1.511-8.25-3.357-13.869-5.843-20.296-7.09-36.676-7.118-14.199-.024-14.688-.094-14.206-2.025.394-1.581-.21-2.22-2.885-3.051-3.369-1.046-3.389-1.033-4.586 3M106 29c0 .55.45 1 1 1s1-.45 1-1-.45-1-1-1-1 .45-1 1m66.19 12.75c.186.962 1 1.75 1.81 1.75s1.624-.788 1.81-1.75c.236-1.228-.304-1.75-1.81-1.75s-2.046.522-1.81 1.75M48.985 48.691c-.013 1.534-.163 1.581-.985.309-.828-1.282-.972-1.246-.985.25C47.006 50.338 47.756 51 49 51c2.07 0 2.76-2.413 1-3.5-.55-.34-1.007.196-1.015 1.191M224 83.859c0 .538-.273 1.689-.607 2.559-.454 1.182-.011 1.553 1.75 1.466 1.78-.088 1.915-.231.554-.584-1.373-.355-1.54-.784-.702-1.795.762-.917.778-1.527.054-1.975-.577-.356-1.049-.208-1.049.329m-68.935 13.263c.625 1.167 1.488 4.204 1.918 6.75.666 3.943.799 4.143.899 1.346.115-3.202-2.197-10.218-3.366-10.218-.323 0-.075.955.549 2.122M151.641 99c.434.825 1.086 3.3 1.449 5.5l.66 4 .125-3.559c.069-1.957-.583-4.432-1.449-5.5-.866-1.067-1.219-1.266-.785-.441m-1.717 12.75l-2.424 2.75 2.75-2.424c2.57-2.266 3.209-3.076 2.424-3.076-.179 0-1.416 1.237-2.75 2.75m6.076-1.993c0 .599-1.222 2.587-2.715 4.416-2.232 2.736-2.305 2.974-.407 1.338 2.695-2.323 4.534-5.433 3.703-6.263-.32-.32-.581-.091-.581.509M222 115c0 .55.675 1 1.5 1s1.5-.45 1.5-1-.675-1-1.5-1-1.5.45-1.5 1m-88 .449c0 .275 1.328 1.186 2.95 2.025 3.197 1.653 9.738 2.01 11.885.649.782-.495-.702-.65-3.585-.373-3.382.325-5.908-.039-8.084-1.164-1.741-.901-3.166-1.412-3.166-1.137M121 143.5c4.651 4.675 8.681 8.5 8.956 8.5.275 0-3.305-3.825-7.956-8.5s-8.681-8.5-8.956-8.5c-.275 0 3.305 3.825 7.956 8.5m-13.034 6.75c4.049 4.259 6.123 5.715 8 5.614l2.534-.136-2.5-.442c-1.375-.243-4.975-2.77-8-5.614l-5.5-5.172 5.466 5.75m99.284 37.495c-2.967 1.477-4.339 3.26-2.5 3.251 1.035-.005 7.25-3.847 7.25-4.481 0-.828-1.281-.496-4.75 1.23m-157.927 3.856c-.708 1.844 1.711 3.765 3.051 2.425 1.092-1.092.09-4.026-1.374-4.026-.585 0-1.339.72-1.677 1.601m150.658.411c-1.995 1.232-.51 2.383 1.572 1.218.937-.524 1.287-1.211.778-1.526-.51-.314-1.567-.176-2.35.308m4.019 3.957c0 .532.675.709 1.5.393.825-.317 1.5-.753 1.5-.969 0-.216-.675-.393-1.5-.393s-1.5.436-1.5.969m-4.541 2.098c-1.076 1.741.149 2.11 1.521.457.789-.95.865-1.524.201-1.524-.584 0-1.36.48-1.722 1.067M60.5 203.469c-1.65 1.352-2.415 2.475-1.7 2.495 1.931.053 7.2-2.866 7.2-3.99 0-1.699-2.399-1.047-5.5 1.495m33.959 18.598c-.363.586-.419 1.306-.126 1.6.717.716 2.667-.546 2.667-1.726 0-1.278-1.726-1.193-2.541.126M142.5 223c-.816 1.32.38 3.192 1.569 2.457 1.215-.75 1.207-3.457-.01-3.457-.518 0-1.219.45-1.559 1" fill="#1976D2" fill-rule="evenodd"/><path fill-opacity=".954" d="M0 23.5c0 16.889.316 23.43 1.125 23.25.619-.137 1.331.313 1.583 1S2.454 49 1.583 49C.149 49 0 58.702 0 152v103h94c62 0 94-.34 94-1 0-.55.675-1 1.5-1s1.5.456 1.5 1.014c0 .669 11.116.924 32.75.75l32.75-.264.078-103.5c.042-56.925-.096-101.587-.308-99.25-.273 3.018-.837 4.25-1.944 4.25-1.161 0-1.378-.575-.849-2.25.39-1.238.944-3.488 1.23-5 .286-1.513.919-2.75 1.406-2.75.49 0 .887-10.296.887-23V0h-12.329c-12.143 0-12.329.034-12.25 2.25.048 1.369-.509 2.25-1.421 2.25s-1.469-.881-1.421-2.25l.08-2.25H0v23.5m.43.5c0 12.925.143 18.212.317 11.75.174-6.463.174-17.038 0-23.5C.573 5.787.43 11.075.43 24M9.48 2.032c-.388.628-.235 1.613.34 2.188 1.344 1.344 4.477.172 3.93-1.471-.556-1.671-3.386-2.147-4.27-.717m191.173 1.952c-.863 4.314-.854 4.369.696 4.597.772.113 2.251.475 3.286.803 1.504.477 2.116-.152 3.049-3.134.643-2.052 1.089-3.788.992-3.858-.097-.07-1.805-.421-3.797-.78-3.424-.619-3.653-.49-4.226 2.372M203 5c0 .55.45 1 1 1s1-.45 1-1-.45-1-1-1-1 .45-1 1m43.986 5.643c-.007 1.021-.268 2.806-.579 3.966-.466 1.736-.021 2.218 2.518 2.726 1.697.339 3.377.74 3.734.891.358.151.758-.458.889-1.352.131-.895.525-2.527.874-3.628.487-1.536.105-2.117-1.643-2.495-1.254-.272-3.066-.825-4.029-1.229-1.301-.547-1.754-.259-1.764 1.121M110 13.611c-5.51.674-17.385 3.572-18.628 4.547-.739.579-1.31.188-1.656-1.137A2.663 2.663 0 0087.094 15c-1.96 0-2.519.923-2.197 3.628.074.621-1.56 1.889-3.631 2.819-7.583 3.403-16.431 8.092-18.077 9.58-.929.84-3.264 2.598-5.189 3.907-1.925 1.31-4.446 3.322-5.601 4.473-1.156 1.151-3.631 3.485-5.5 5.187-5.443 4.956-9.18 9.428-14.555 17.423-5.476 8.143-12.629 22.636-12.038 24.389.203.602-.213 1.544-.925 2.094-.713.55-1.506 2.125-1.763 3.5-.257 1.375-1.201 5.875-2.097 10-1.953 8.991-2.262 31.48-.563 41 1.179 6.609 2.098 9.96 4.936 18 .874 2.475 1.593 4.8 1.597 5.167.005.366.347 1.004.759 1.416.413.413.75 1.413.75 2.223 0 .811.742 2.016 1.649 2.679 1.451 1.061 1.36 1.194-.75 1.11-2.802-.111-3.367 2.691-.649 3.215.962.185 1.75-.176 1.75-.802 0-.627 2.694 2.888 5.986 7.81 7.197 10.76 18.131 22.702 24.434 26.686 3.595 2.272 4.269 3.091 3.089 3.751-1.914 1.071-1.972 3.745-.08 3.745.785 0 2.092-.663 2.902-1.474 1.3-1.299 1.542-1.299 2.04 0 .312.811 1.218 1.474 2.014 1.474.797 0 1.598.397 1.782.882.427 1.131 14.241 7.671 21.647 10.249 9.854 3.431 14.857 4.355 29.436 5.439 8.563.637 9.75.951 9.75 2.578 0 1.018.648 1.852 1.441 1.852 2.228 0 3.045-2.172 1.298-3.449-1.246-.911-.227-1.195 4.962-1.387 8.037-.297 26.678-4.756 29.799-7.128.55-.418 2.125-1.029 3.5-1.358 2.17-.519 7.048-3.243 17.099-9.548 5.364-3.364 8.498-5.738 12.387-9.38 2.202-2.062 4.761-3.75 5.687-3.75.926 0 2.279-.582 3.006-1.292.726-.711 2.751-1.877 4.499-2.592 1.747-.714 3.946-2.148 4.886-3.187 1.474-1.629 1.504-1.966.217-2.46-1.653-.634-8.781 3.172-8.781 4.689 0 .528-.507.647-1.127.263-.718-.443-.172-1.276 1.5-2.29 1.445-.877 2.627-2.165 2.627-2.863 0-.697.477-1.268 1.059-1.268s.721-.562.308-1.25c-.592-.985-.435-.994.743-.042.822.665 2.415.968 3.54.673 1.125-.294 3.737.172 5.804 1.035 4.557 1.904 5.535 1.427 5.581-2.725.02-1.755.679-4.316 1.465-5.691 2.028-3.548 1.951-3.676-2.583-4.284-2.245-.301-4.316-.782-4.602-1.068-.286-.286.814-3.361 2.445-6.834 3.029-6.449 6.551-16.135 7.66-21.064.476-2.118 1.203-2.75 3.165-2.75 2.189 0 2.503-.387 2.231-2.75-.243-2.112-.833-2.732-2.545-2.673-1.685.058-1.973-.231-1.181-1.185 1.7-2.049 1.167-32.458-.716-40.809-.878-3.896-1.838-7.758-2.134-8.583-.721-2.012-.255-6.245.833-7.574 1.1-1.343-.845-3.426-3.199-3.426-1.117 0-2.698-2.031-4.475-5.75-4.339-9.081-15.17-24.22-21.816-30.492-3.345-3.158-6.421-5.746-6.833-5.75-.412-.004-.75-1.546-.75-3.425 0-3.689-1.459-4.849-4.276-3.399-1.261.649-2.567.363-4.5-.986-3.211-2.24-18.499-10.591-19.224-10.5-.275.034-1.617-.362-2.983-.881-10.317-3.923-22.138-5.993-36.017-6.306-7.975-.18-16.075-.135-18 .1M249 14c0 .55.45 1 1 1s1-.45 1-1-.45-1-1-1-1 .45-1 1M57.385 16.756a69.647 69.647 0 01-1.399 3.894c-1.02 2.575-.414 3.35 2.622 3.35 1.251 0 2.557.457 2.902 1.016.971 1.571 2.49.122 2.49-2.375 0-1.233.525-2.766 1.167-3.408.89-.89.711-1.313-.75-1.782a77.208 77.208 0 01-4.201-1.526c-1.801-.72-2.399-.544-2.831.831M163 17c0 1.506.522 2.046 1.75 1.81.963-.186 1.75-1 1.75-1.81s-.787-1.624-1.75-1.81c-1.228-.236-1.75.304-1.75 1.81m59.543 9.931c-.74 1.197 1.141 2.382 2.473 1.559 1.119-.691.384-2.49-1.016-2.49-.485 0-1.141.419-1.457.931M20 31.5c0 .917.484 1.505 1.075 1.308.591-.197 1.075-.785 1.075-1.308 0-.522-.484-1.111-1.075-1.308-.591-.197-1.075.391-1.075 1.308M.482 152c0 56.925.12 80.213.268 51.75.147-28.462.147-75.037 0-103.5C.602 71.788.482 95.075.482 152M243.75 53.572c-2.765 1.5-3.695 3.428-1.654 3.428.602 0 2.402-.772 4-1.716 5.104-3.015 2.951-4.586-2.346-1.712M18.015 56.955c-1.367 1.05-2.129 2.265-1.693 2.7.947.948 6.011-1.737 5.903-3.13-.131-1.695-1.643-1.541-4.21.43m218.444 1.112c-.92 1.489.147 2.298 2.061 1.564.884-.339 1.327-1.07.984-1.624-.81-1.311-2.215-1.284-3.045.06m6.287 1.558c-2.922 1.531-3.663 3.375-1.357 3.375 1.936 0 6.138-3.556 5.019-4.248-.503-.311-2.152.082-3.662.873m5.455 2.394c-4.724 2.88-2.998 4.557 1.872 1.82 3.909-2.197 5.058-3.842 2.677-3.835-.687.002-2.735.909-4.549 2.015M15.98 63.524c-.696.838-.978 1.812-.627 2.163.982.981 5.843-1.561 5.144-2.691-.905-1.466-3.072-1.212-4.517.528m219.479.543c-.363.586-.409 1.317-.102 1.623.822.823 3.643-.461 3.643-1.659 0-1.357-2.697-1.33-3.541.036M10.015 66.954c-1.367 1.05-2.156 2.238-1.754 2.64C9.381 70.715 14 68.242 14 66.521c0-1.995-.961-1.891-3.985.433m231.116-.612c-.612.738-.849 1.607-.525 1.931.967.966 3.394-.378 3.394-1.88 0-1.767-1.423-1.793-2.869-.051M16.715 68.246c-1.009.754-1.363 1.752-.887 2.504.622.984 1.203.945 2.731-.183 1.365-1.007 1.628-1.75.887-2.503-.748-.761-1.54-.708-2.731.182m229.726 12.85c-.373.603-.062 1.711.691 2.464 1.734 1.734 4.398.263 3.545-1.959-.703-1.832-3.23-2.133-4.236-.505m-4.264 37.457c.452 2.172 2.227 2.305 2.633.197.21-1.095-.28-1.75-1.31-1.75-.961 0-1.512.647-1.323 1.553M4.25 120.25c.63 1.892 3.75 2.161 3.75.323 0-.927-.855-1.573-2.083-1.573-1.222 0-1.912.517-1.667 1.25m1.673 30.955a67.726 67.726 0 00-.393 1.921c-.174.895-.586 2.474-.914 3.509-.477 1.503.15 2.115 3.117 3.044C12.123 161.053 13 160.69 13 157.5c0-1.31.489-2.684 1.087-3.054.598-.369.711-1.016.25-1.438-.838-.766-8.269-2.36-8.414-1.803m245.822 3.045c-.268 1.238-.798 2.982-1.176 3.878-.533 1.258.006 1.729 2.371 2.076 3.102.456 4.394-1.415 1.81-2.621-1-.466-1-.7 0-1.166 1.754-.819 1.557-3.085-.332-3.81-2.183-.838-2.127-.872-2.673 1.643m-24.4 15.293c-.754 1.966.138 2.869 2.095 2.118.879-.337 1.276-1.238.936-2.123-.758-1.976-2.272-1.973-3.031.005m-7.763 14.89c-.843 3.14-.765 3.299 1.872 3.803 1.977.378 2.639-.065 3.412-2.283.887-2.542.743-2.783-1.884-3.169-2.226-.327-2.965.032-3.4 1.649M2.639 189.694C1.513 190.82 1.954 192 3.5 192c.825 0 1.5-.423 1.5-.941 0-1.261-1.562-2.164-2.361-1.365m25.992 4.008c-.347.347-.631 1.88-.631 3.406 0 1.526-.45 3.052-1 3.392-1.779 1.1-1.06 3.5 1.05 3.5 1.127 0 3.32.657 4.873 1.46 3.301 1.707 4.077 1.219 4.077-2.568 0-1.526.45-3.052 1-3.392.55-.34 1-1.491 1-2.559 0-1.499-.698-1.941-3.066-1.941-1.686 0-3.877-.434-4.868-.965-.992-.53-2.087-.68-2.435-.333m219.825 3.022c-4.313 2.93-3.284 4.273 1.413 1.844 3.378-1.747 4.575-3.175 3.314-3.955-.467-.288-2.594.661-4.727 2.111m-227.71 2.901c-2.922 1.531-3.663 3.375-1.357 3.375 1.936 0 6.138-3.556 5.019-4.248-.503-.311-2.152.082-3.662.873m9.924-.208c-.299.78.167 1.69 1.036 2.024 2 .767 2.707.078 1.949-1.898-.741-1.931-2.268-1.995-2.985-.126m210.473 1.473c-.946.6-1.021 1.067-.25 1.544 1.269.784 3.107-.1 3.107-1.493 0-1.163-1.072-1.182-2.857-.051m5.872 2.064c-1.367 1.05-2.196 2.198-1.843 2.551.959.959 6.989-2.436 6.302-3.548-.837-1.354-1.63-1.177-4.459.997m-233.556 1.113c-.363.586-.409 1.317-.102 1.623.822.823 3.643-.461 3.643-1.659 0-1.357-2.697-1.33-3.541.036m239.291.72c-2.94 1.792-3.577 3.213-1.441 3.213 1.968 0 5.02-2.521 4.579-3.782-.258-.736-1.31-.545-3.138.569m-234.307 1.631c-1.067.78-1.637 1.721-1.267 2.092 1.09 1.09 4.824-.518 4.824-2.077 0-1.813-1.092-1.818-3.557-.015m222.016.649c-1.173 1.897.537 2.365 2.279.623 1.559-1.558 1.562-1.69.035-1.69-.91 0-1.952.48-2.314 1.067m-216.016 1.351c-1.067.78-1.605 1.753-1.196 2.163.945.944 5.753-1.195 5.753-2.56 0-1.46-2.291-1.26-4.557.397m221.586.543c-.809.512-1.166 1.235-.793 1.608.915.915 3.764-.249 3.764-1.538 0-1.27-1.035-1.294-2.971-.07m-234.456 1.56c-1.06.802-1.624 1.761-1.254 2.131.892.892 5.681-1.325 5.681-2.631 0-1.453-2.169-1.208-4.427.5m6.886 1.546c-.92 1.489.147 2.298 2.061 1.564.884-.339 1.327-1.07.984-1.624-.81-1.311-2.215-1.284-3.045.06m34.093.524c-2.264 2.264-.542 4.009 2.401 2.434 2.175-1.164 2.355-3.089.351-3.757-.59-.197-1.828.399-2.752 1.323m176.204 12.601c-.274 1.269-.808 3.038-1.185 3.93-.497 1.173-.047 1.761 1.621 2.122 1.269.274 3.095.83 4.058 1.234 1.401.589 1.75.228 1.75-1.812 0-1.401.45-2.826 1-3.166 1.672-1.033 1.125-2.24-1.25-2.755-1.238-.268-2.98-.797-3.872-1.174-1.173-.497-1.761-.047-2.122 1.621m22.724-1.16c-.388.628-.235 1.613.34 2.188 1.344 1.344 4.477.172 3.93-1.471-.556-1.671-3.386-2.147-4.27-.717M212.5 227c-.729 1.18.217 3 1.559 3 .518 0 .941-.9.941-2 0-2.109-1.455-2.691-2.5-1m-30.81.75c-.235.412-.732 2.438-1.104 4.5-.575 3.189-.408 3.752 1.119 3.764.987.007 2.748.269 3.913.582 1.639.44 2.231.041 2.621-1.764.277-1.283.835-3.119 1.239-4.082.589-1.401.228-1.75-1.812-1.75-1.401 0-2.826-.45-3.166-1-.729-1.18-2.204-1.311-2.81-.25M231 228c0 .55.45 1 1 1s1-.45 1-1-.45-1-1-1-1 .45-1 1m-126 10.5c-.993 1.197-.993 1.803 0 3 1.601 1.929 3.9 1.923 4.643-.013.575-1.497-1.186-4.487-2.643-4.487-.415 0-1.315.675-2 1.5m-22.456.646c-1.267 3.626-.99 7.133.582 7.382.895.143 2.527.545 3.628.894 1.536.487 2.117.105 2.495-1.643.272-1.254.803-3.009 1.18-3.901.497-1.173.047-1.761-1.621-2.122-1.269-.274-3.092-.828-4.05-1.231-1.104-.465-1.914-.237-2.214.621m-15.905 2.548c-1.195 1.195-.645 3.306.861 3.306.825 0 1.5-.648 1.5-1.441 0-1.671-1.427-2.798-2.361-1.865M85 243c0 .55.477 1 1.059 1s.781-.45.441-1-.816-1-1.059-1-.441.45-.441 1m-49.901 3.604c-.706 1.95-1.129 3.677-.941 3.838.188.161 1.919.577 3.847.925 3.339.602 3.559.462 4.626-2.947 1.195-3.818 1.258-3.735-3.691-4.808-2.221-.481-2.728-.086-3.841 2.992M38 248.059c0 .582.45.781 1 .441s1-.816 1-1.059-.45-.441-1-.441-1 .477-1 1.059" fill="#1976D2" fill-rule="evenodd"/></svg>